<?xml version="1.0" encoding="UTF-8"?>
<!DOCTYPE svg PUBLIC "-//W3C//DTD SVG 1.1//EN" "http://www.w3.org/Graphics/SVG/1.1/DTD/svg11.dtd">
<!-- Creator: CorelDRAW X6 -->
<svg xmlns="http://www.w3.org/2000/svg" xml:space="preserve" width="62.9696mm" height="55.456mm" version="1.1" style="shape-rendering:geometricPrecision; text-rendering:geometricPrecision; image-rendering:optimizeQuality; fill-rule:evenodd; clip-rule:evenodd"
viewBox="0 0 1562 1376"
 xmlns:xlink="http://www.w3.org/1999/xlink">
 <defs>
  <style type="text/css">
   <![CDATA[
    .fil0 {fill:#8C6901}
    .fil2 {fill:#C59E70}
    .fil1 {fill:#EACEAC}
   ]]>
  </style>
 </defs>
 <g id="Camada_x0020_1">
  <metadata id="CorelCorpID_0Corel-Layer"/>
  <path class="fil0" d="M273 859c13,42 334,348 377,391 37,37 93,101 131,126 34,-9 50,-36 73,-60 25,-25 50,-45 69,-73 -9,-33 -33,-46 -55,-69l-193 -197 52 -46c49,33 224,241 259,241 23,0 90,-70 98,-98l-251 -255 57 -53c86,57 171,197 264,246 30,-20 134,-119 142,-151 -26,-39 -86,-90 -122,-126l-320 -320c-23,-24 -39,-51 -73,-60l-508 504z"/>
  <path class="fil0" d="M0 799c9,32 107,119 142,142 40,-11 291,-278 326,-313l322 -326 98 97c90,91 465,485 523,524 33,-9 58,-44 90,-70 29,-25 53,-41 61,-72l-81 -88c-1,-1 -3,-3 -4,-5 -1,-1 -3,-3 -4,-5l-490 -496c-36,-36 -165,-179 -202,-189l-267 266c-107,126 -301,293 -395,404 -42,50 -96,95 -119,129z"/>
  <path class="fil1" d="M319 858c16,48 287,302 345,359 34,34 85,100 128,115l86 -88c-23,-64 -226,-210 -245,-268 12,-27 64,-79 94,-93 70,26 200,221 269,246l41 -45c-21,-62 -222,-210 -245,-268 12,-27 71,-89 103,-96l256 247 99 -95c-14,-43 -76,-91 -110,-124 -56,-56 -318,-334 -364,-350l-458 460z"/>
  <path class="fil2" d="M46 799c19,46 66,48 92,100 88,-38 610,-637 652,-639 46,-1 555,587 634,620 28,-41 74,-61 93,-99l-724 -737c-40,14 -153,146 -191,185 -64,68 -107,110 -186,187l-370 383z"/>
  <path class="fil0" d="M1047 204c0,25 153,163 208,227 33,38 22,38 67,39l0 -453 -275 0 0 186z"/>
  <path class="fil2" d="M1081 169c0,48 67,101 94,130 28,29 89,90 111,108l3 -355 -209 0 2 117z"/>
 </g>
</svg>
